<svg width="1418" height="145" viewBox="0 0 1418 145" fill="none" xmlns="http://www.w3.org/2000/svg">
<path d="M0.341108 145L0.341108 82.576H29.2851L0.341108 55.144L0.341108 27.064L25.6131 0.495994L105.101 0.495994L105.101 62.92H76.3731L105.101 91.648V117.136L80.0451 145H0.341108ZM110.771 62.92V0.495994L205.595 0.495994V62.92L181.835 62.92L181.835 145H134.531L134.531 62.92H110.771ZM211.287 27.928L236.559 0.495994L316.263 0.495994V145H269.175V133.336H258.375V145H211.287L211.287 27.928ZM258.375 62.92V71.344H269.175V62.92H258.375ZM321.928 145V27.928L347.2 0.495994L426.904 0.495994V62.92H369.016V82.36L426.904 82.36V145L321.928 145ZM523.721 72.64L537.545 88.84V145H490.457V109.144L479.657 96.832V145H432.569V0.495994H479.657V48.232L490.457 36.352V0.495994L537.545 0.495994V53.848L523.721 72.64ZM662.658 145H620.322L602.826 122.968L585.114 145H543.21V0.495994L590.298 0.495994V52.984L602.826 41.32L615.138 52.984V0.495994L662.658 0.495994V145ZM753.736 62.92L715.072 62.92L726.088 72.856L715.072 82.36H753.736V145L667.984 145V0.495994L753.736 0.495994V62.92ZM851.229 72.856L864.621 89.272V145H817.101V125.128L806.517 113.464V145H759.429V0.495994L864.405 0.495994V54.064L851.229 72.856ZM806.517 62.92V71.344H817.317V62.92H806.517ZM961.433 72.64L975.257 88.84V145L928.169 145V109.144L917.369 96.832V145H870.281V0.495994H917.369V48.232L928.169 36.352V0.495994H975.257V53.848L961.433 72.64ZM1085.9 145H1038.81V103.312H1028.01V145H980.922V0.495994L1028.01 0.495994V40.888H1038.81V0.495994L1085.9 0.495994V145ZM1091.56 27.928L1116.83 0.495994L1196.54 0.495994V145H1149.45V133.336H1138.65V145H1091.56V27.928ZM1138.65 62.92V71.344H1149.45V62.92H1138.65ZM1249.29 82.36H1260.09V0.495994L1307.18 0.495994V145L1227.26 145L1202.2 117.136V0.495994H1249.29V82.36ZM1312.84 145V82.576H1341.79L1312.84 55.144V27.064L1338.12 0.495994L1417.6 0.495994V62.92H1388.88L1417.6 91.648V117.136L1392.55 145H1312.84Z" fill="white"/>
</svg>
